<?xml version="1.0" encoding="UTF-8" standalone="no"?>
<!DOCTYPE svg PUBLIC "-//W3C//DTD SVG 1.1//EN"
 "http://www.w3.org/Graphics/SVG/1.1/DTD/svg11.dtd">
<!-- Generated by graphviz version 2.43.0 (0)
 -->
<!-- Title: snakemake_dag Pages: 1 -->
<svg width="302pt" height="116pt"
 viewBox="0.00 0.00 302.00 116.00" xmlns="http://www.w3.org/2000/svg" xmlns:xlink="http://www.w3.org/1999/xlink">
<g id="graph0" class="graph" transform="scale(1 1) rotate(0) translate(4 112)">
<title>snakemake_dag</title>
<polygon fill="white" stroke="transparent" points="-4,4 -4,-112 298,-112 298,4 -4,4"/>
<!-- 0 -->
<g id="node1" class="node">
<title>0</title>
<path fill="none" stroke="#59d856" stroke-width="2" d="M74,-36C74,-36 12,-36 12,-36 6,-36 0,-30 0,-24 0,-24 0,-12 0,-12 0,-6 6,0 12,0 12,0 74,0 74,0 80,0 86,-6 86,-12 86,-12 86,-24 86,-24 86,-30 80,-36 74,-36"/>
<text text-anchor="middle" x="43" y="-15.5" font-family="sans" font-size="10.00">samtools_sort</text>
</g>
<!-- 1 -->
<g id="node2" class="node">
<title>1</title>
<path fill="none" stroke="#d85656" stroke-width="2" stroke-dasharray="5,2" d="M63.5,-108C63.5,-108 22.5,-108 22.5,-108 16.5,-108 10.5,-102 10.5,-96 10.5,-96 10.5,-84 10.5,-84 10.5,-78 16.5,-72 22.5,-72 22.5,-72 63.5,-72 63.5,-72 69.5,-72 75.5,-78 75.5,-84 75.5,-84 75.5,-96 75.5,-96 75.5,-102 69.5,-108 63.5,-108"/>
<text text-anchor="middle" x="43" y="-93" font-family="sans" font-size="10.00">bwa_map</text>
<text text-anchor="middle" x="43" y="-82" font-family="sans" font-size="10.00">sample: A</text>
</g>
<!-- 1&#45;&gt;0 -->
<g id="edge1" class="edge">
<title>1&#45;&gt;0</title>
<path fill="none" stroke="grey" stroke-width="2" d="M43,-71.7C43,-63.98 43,-54.71 43,-46.11"/>
<polygon fill="grey" stroke="grey" stroke-width="2" points="46.5,-46.1 43,-36.1 39.5,-46.1 46.5,-46.1"/>
</g>
<!-- 2 -->
<g id="node3" class="node">
<title>2</title>
<path fill="none" stroke="#59d856" stroke-width="2" d="M178,-36C178,-36 116,-36 116,-36 110,-36 104,-30 104,-24 104,-24 104,-12 104,-12 104,-6 110,0 116,0 116,0 178,0 178,0 184,0 190,-6 190,-12 190,-12 190,-24 190,-24 190,-30 184,-36 178,-36"/>
<text text-anchor="middle" x="147" y="-15.5" font-family="sans" font-size="10.00">samtools_sort</text>
</g>
<!-- 3 -->
<g id="node4" class="node">
<title>3</title>
<path fill="none" stroke="#d85656" stroke-width="2" stroke-dasharray="5,2" d="M167.5,-108C167.5,-108 126.5,-108 126.5,-108 120.5,-108 114.5,-102 114.5,-96 114.5,-96 114.5,-84 114.5,-84 114.5,-78 120.5,-72 126.5,-72 126.5,-72 167.5,-72 167.5,-72 173.5,-72 179.5,-78 179.5,-84 179.5,-84 179.5,-96 179.5,-96 179.5,-102 173.5,-108 167.5,-108"/>
<text text-anchor="middle" x="147" y="-93" font-family="sans" font-size="10.00">bwa_map</text>
<text text-anchor="middle" x="147" y="-82" font-family="sans" font-size="10.00">sample: C</text>
</g>
<!-- 3&#45;&gt;2 -->
<g id="edge2" class="edge">
<title>3&#45;&gt;2</title>
<path fill="none" stroke="grey" stroke-width="2" d="M147,-71.7C147,-63.98 147,-54.71 147,-46.11"/>
<polygon fill="grey" stroke="grey" stroke-width="2" points="150.5,-46.1 147,-36.1 143.5,-46.1 150.5,-46.1"/>
</g>
<!-- 4 -->
<g id="node5" class="node">
<title>4</title>
<path fill="none" stroke="#59d856" stroke-width="2" d="M282,-36C282,-36 220,-36 220,-36 214,-36 208,-30 208,-24 208,-24 208,-12 208,-12 208,-6 214,0 220,0 220,0 282,0 282,0 288,0 294,-6 294,-12 294,-12 294,-24 294,-24 294,-30 288,-36 282,-36"/>
<text text-anchor="middle" x="251" y="-15.5" font-family="sans" font-size="10.00">samtools_sort</text>
</g>
<!-- 5 -->
<g id="node6" class="node">
<title>5</title>
<path fill="none" stroke="#d85656" stroke-width="2" stroke-dasharray="5,2" d="M271.5,-108C271.5,-108 230.5,-108 230.5,-108 224.5,-108 218.5,-102 218.5,-96 218.5,-96 218.5,-84 218.5,-84 218.5,-78 224.5,-72 230.5,-72 230.5,-72 271.5,-72 271.5,-72 277.5,-72 283.5,-78 283.5,-84 283.5,-84 283.5,-96 283.5,-96 283.5,-102 277.5,-108 271.5,-108"/>
<text text-anchor="middle" x="251" y="-93" font-family="sans" font-size="10.00">bwa_map</text>
<text text-anchor="middle" x="251" y="-82" font-family="sans" font-size="10.00">sample: B</text>
</g>
<!-- 5&#45;&gt;4 -->
<g id="edge3" class="edge">
<title>5&#45;&gt;4</title>
<path fill="none" stroke="grey" stroke-width="2" d="M251,-71.7C251,-63.98 251,-54.71 251,-46.11"/>
<polygon fill="grey" stroke="grey" stroke-width="2" points="254.5,-46.1 251,-36.1 247.5,-46.1 254.5,-46.1"/>
</g>
</g>
</svg>
